Coordinates
version=1
nRows=19
nColumns=33
inDegrees=yes

Units are S.I. units (second, meters, Newtons, ...)
Angles are in degrees.

endheader
time	ground_thorax_rot_x	ground_thorax_rot_y	ground_thorax_rot_z	ground_thorax_tx	ground_thorax_ty	ground_thorax_tz	clav_prot_r	clav_elev_r	scapula_abduction_r	scapula_elevation_r	scapula_upward_rot_r	scapula_winging_r	shoulder_elv_r	plane_of_elev_r	axial_rot_r	elbow_flexion_r	pro_sup_r	wrist_flex_r	wrist_dev_r	clav_prot_l	clav_elev_l	scapula_abduction_l	scapula_elevation_l	scapula_upward_rot_l	scapula_winging_l	shoulder_elv_l	plane_of_elev_l	axial_rot_l	elbow_flexion_l	pro_sup_l	wrist_flex_l	wrist_dev_l	
9.4000	-18.149278	-36.556393	56.983944	41.206721	765.357628	-32.020429	28.975924	-45.000000	38.634327	-45.000000	-45.000000	-2261.616479	-2267.553322	161.906772	46.472756	1069.428474	-8.299256	16.452028	0.263832	-1.425490	29.523459	-24.205008	-45.000000	-45.000000	-3161.420591	-2085.664217	25.921265	48.801888	709.571729	42.058084	12.074601	-12.632994	
9.4100	-18.095129	-36.573796	57.092307	41.254178	765.062791	-32.123601	28.921025	-45.000000	38.693626	-45.000000	-45.000000	-2261.751178	-2267.556051	161.966366	47.028349	1069.982261	2.477391	15.902986	0.854118	-1.518099	29.532488	-24.152749	-45.000000	-45.000000	-3161.356682	-2085.755455	25.883634	48.349931	709.701533	42.689547	12.067381	-12.789633	
9.4200	-18.010702	-36.590673	57.243936	41.254748	764.778667	-32.226787	28.814164	-45.000000	38.773440	-45.000000	-45.000000	-2261.916995	-2267.614926	162.026510	47.304789	1071.274954	22.979115	15.045760	2.295422	-1.653729	29.517027	-24.100430	-45.000000	-45.000000	-3161.294554	-2085.860485	25.826284	47.828306	709.841107	43.316058	12.063899	-12.922383	
9.4300	-17.996341	-36.590597	57.293820	41.159535	764.519866	-32.331189	28.774682	-45.000000	38.816302	-45.000000	-45.000000	-2262.027098	-2267.705304	162.086925	47.405249	1073.118184	51.073236	14.010434	4.393332	-1.714059	29.511268	-24.073584	-45.000000	-45.000000	-3161.224277	-2085.928034	25.796890	47.469213	709.934004	43.800559	12.059240	-13.034451	
9.4400	-18.029164	-36.569387	57.276298	40.956157	764.286504	-32.437184	28.755164	-45.000000	38.841214	-45.000000	-45.000000	-2262.103655	-2267.823155	162.147516	47.274502	1075.391087	84.688985	12.849575	7.002377	-1.743902	29.509009	-24.068310	-45.000000	-45.000000	-3161.156184	-2085.972261	25.779805	47.195647	709.996333	44.175279	12.054253	-13.134636	
9.4500	-18.137566	-36.515720	57.157141	40.629300	764.079725	-32.544530	28.733911	-45.000000	38.833025	-45.000000	-45.000000	-2262.149000	-2267.931185	162.183948	47.062631	1077.484748	115.160819	11.850010	9.417893	-1.729226	29.497939	-24.099247	-45.000000	-45.000000	-3161.101612	-2085.982398	25.772806	47.050320	710.029254	44.422396	12.040435	-13.195803	
9.4600	-18.284957	-36.441490	56.983457	40.176608	763.896905	-32.651736	28.715674	-45.000000	38.818444	-45.000000	-45.000000	-2262.165551	-2268.019038	162.218433	46.763914	1079.325072	141.505967	11.005163	11.545037	-1.705983	29.491707	-24.150603	-45.000000	-45.000000	-3161.050668	-2085.978050	25.768307	46.939413	710.045380	44.592048	12.026910	-13.261691	
9.4700	-18.485800	-36.342070	56.738703	39.604699	763.733225	-32.755722	28.683934	-45.000000	38.785029	-45.000000	-45.000000	-2262.181482	-2268.064124	162.211348	46.558808	1080.454655	157.282028	10.540573	12.855708	-1.666461	29.483397	-24.222997	-45.000000	-45.000000	-3161.014702	-2085.956076	25.767313	46.878028	710.058343	44.705099	12.001472	-13.292811	
9.4800	-18.697036	-36.242326	56.477544	38.922620	763.584588	-32.852026	28.654275	-45.000000	38.759241	-45.000000	-45.000000	-2262.176267	-2268.064483	162.207296	46.427734	1080.978955	164.306382	10.337910	13.459244	-1.630841	29.484475	-24.292594	-45.000000	-45.000000	-3160.978552	-2085.925484	25.759634	46.807270	710.075858	44.789640	11.978651	-13.341693	
9.4900	-18.921878	-36.147192	56.199748	38.141178	763.447540	-32.935164	28.634174	-45.000000	38.732413	-45.000000	-45.000000	-2262.179439	-2268.035582	162.180004	46.429499	1081.002725	164.135581	10.370899	13.483210	-1.597519	29.496819	-24.364037	-45.000000	-45.000000	-3160.934353	-2085.889732	25.748462	46.745513	710.099524	44.847863	11.959257	-13.379738	
9.5000	-19.116196	-36.072414	55.963223	37.269487	763.320374	-32.999843	28.617030	-45.000000	38.728506	-45.000000	-45.000000	-2262.179779	-2267.990742	162.179876	46.428332	1081.012342	163.961606	10.373914	13.490756	-1.573049	29.511691	-24.423561	-45.000000	-45.000000	-3160.866639	-2085.858694	25.732174	46.655112	710.111727	44.882886	11.965807	-13.449218	
9.5100	-19.318999	-36.004603	55.718320	36.315078	763.202702	-33.041793	28.614219	-45.000000	38.722633	-45.000000	-45.000000	-2262.204511	-2267.946854	162.159170	46.475377	1081.021322	163.805195	10.409815	13.509148	-1.545597	29.547075	-24.484912	-45.000000	-45.000000	-3160.786576	-2085.825687	25.724347	46.601060	710.109550	44.849743	11.992231	-13.505200	
9.5200	-19.514425	-35.951763	55.489167	35.282888	763.095479	-33.058369	28.597622	-45.000000	38.725308	-45.000000	-45.000000	-2262.219611	-2267.890061	162.166080	46.513985	1081.013464	163.679522	10.422689	13.511498	-1.512220	29.564658	-24.541658	-45.000000	-45.000000	-3160.698169	-2085.784508	25.714162	46.584193	710.082877	44.700432	12.042866	-13.571984	
9.5300	-19.728292	-35.904763	55.238759	34.175516	763.000997	-33.049225	28.594584	-45.000000	38.725361	-45.000000	-45.000000	-2262.247939	-2267.838968	162.159335	46.571132	1081.011787	163.591969	10.455681	13.524139	-1.485856	29.598195	-24.604465	-45.000000	-45.000000	-3160.606673	-2085.741265	25.708925	46.614890	710.038241	44.400069	12.112964	-13.621957	
9.5400	-19.949433	-35.862356	54.981611	32.990614	762.923569	-33.018159	28.579773	-45.000000	38.728107	-45.000000	-45.000000	-2262.270180	-2267.776317	162.169361	46.615220	1080.998813	163.547992	10.473709	13.526545	-1.455411	29.607344	-24.668903	-45.000000	-45.000000	-3160.515966	-2085.693055	25.707419	46.679916	709.965652	43.935899	12.197894	-13.665247	
9.5500	-20.197052	-35.816497	54.685362	31.722794	762.868420	-32.971636	28.578924	-45.000000	38.725526	-45.000000	-45.000000	-2262.305847	-2267.721998	162.155823	46.668500	1080.999168	163.543973	10.516227	13.545581	-1.435245	29.640870	-24.738979	-45.000000	-45.000000	-3160.429085	-2085.644792	25.715303	46.774504	709.881925	43.323297	12.290455	-13.684973	
9.5600	-20.457874	-35.767444	54.371076	30.363539	762.841729	-32.918639	28.568199	-45.000000	38.720291	-45.000000	-45.000000	-2262.336150	-2267.660398	162.149935	46.709054	1080.988931	163.579042	10.545668	13.557931	-1.410868	29.646847	-24.816903	-45.000000	-45.000000	-3160.335757	-2085.596176	25.730743	46.882053	709.781296	42.603971	12.380845	-13.699327	
9.5700	-20.733182	-35.709891	54.030693	28.904927	762.849124	-32.867776	28.558920	-45.000000	38.713259	-45.000000	-45.000000	-2262.372537	-2267.596512	162.133760	46.747168	1080.983125	163.644493	10.591481	13.579545	-1.387796	29.681541	-24.904405	-45.000000	-45.000000	-3160.239393	-2085.548069	25.750726	46.997674	709.672815	41.832640	12.470142	-13.707264	
9.5800	-21.018081	-35.639129	53.672565	27.339491	762.896103	-32.827277	28.542515	-45.000000	38.703524	-45.000000	-45.000000	-2262.408327	-2267.523070	162.121854	46.773344	1080.969200	163.736388	10.631622	13.596680	-1.361238	29.697688	-24.999123	-45.000000	-45.000000	-3160.141720	-2085.501116	25.775624	47.097059	709.562471	41.067952	12.538649	-13.715960	
